M48
INCH,TZ
T1C0.016
T2C0.026
T3C0.028
T4C0.039
T5C0.083
%
G90
G05
T1
X39961Y-20276
X39961Y-20669
X39961Y-21063
X39961Y-21457
X39961Y-21850
X39961Y-34843
X39961Y-35236
X39961Y-35630
X39961Y-36024
X39961Y-36417
X39961Y-40354
X39961Y-40748
X39961Y-41142
X39961Y-41535
X39961Y-41929
X39961Y-54921
X39961Y-55315
X39961Y-55709
X39961Y-56102
X39961Y-56496
X40502Y-43073
X41142Y-19094
X41142Y-37598
X41142Y-39173
X41142Y-57677
X41535Y-19094
X41535Y-37598
X41535Y-39173
X41535Y-57677
X41634Y-44841
X41656Y-43301
X41929Y-19094
X41929Y-37598
X41929Y-39173
X41929Y-57677
X42084Y-43041
X42323Y-19094
X42323Y-37598
X42323Y-39173
X42323Y-57677
X42370Y-44916
X42375Y-41903
X42384Y-42241
X42534Y-40841
X42584Y-41441
X42626Y-19558
X42626Y-25258
X42717Y-19094
X42717Y-37598
X42717Y-39173
X42717Y-57677
X42758Y-42265
X42800Y-51850
X43684Y-45741
X43734Y-42141
X43734Y-42641
X43745Y-43555
X43776Y-37058
X43900Y-49800
X44134Y-40691
X44176Y-19408
X44184Y-47541
X44234Y-39691
X44284Y-42491
X44334Y-41241
X44584Y-39541
X44934Y-39541
X45026Y-37058
X45176Y-19408
X45192Y-43081
X45234Y-48691
X45248Y-53894
X45284Y-42591
X45484Y-46391
X45534Y-41191
X46034Y-42041
X46084Y-41091
X46155Y-48430
X46176Y-19408
X46384Y-43941
X46433Y-47595
X46433Y-49265
X46433Y-48152
X46433Y-48708
X46626Y-36758
X46712Y-46760
X46712Y-47316
X46712Y-47873
X46712Y-48430
X46712Y-48987
X46990Y-46481
X46990Y-47038
X46990Y-50379
X46990Y-47595
X46990Y-48152
X46990Y-48708
X47269Y-46203
X47269Y-46760
X47269Y-50100
X47269Y-50657
X47269Y-47316
X47269Y-47873
X47269Y-48430
X47547Y-45924
X47547Y-46481
X47547Y-49822
X47547Y-50379
X47547Y-47038
X47547Y-47595
X47547Y-48152
X47679Y-52680
X47684Y-41791
X47734Y-42241
X47825Y-46203
X47825Y-46760
X47825Y-47316
X47825Y-49544
X47825Y-50100
X48104Y-45924
X48104Y-46481
X48104Y-47038
X48104Y-49265
X48104Y-49822
X48284Y-41691
X48382Y-45646
X48382Y-46203
X48382Y-46760
X48382Y-48987
X48382Y-49544
X48382Y-51214
X48456Y-35735
X48661Y-45924
X48661Y-46481
X48661Y-49265
X48661Y-50935
X48939Y-45646
X48939Y-46203
X48939Y-46760
X48939Y-50657
X48939Y-51214
X48976Y-34708
X49217Y-45368
X49217Y-45924
X49217Y-46481
X49217Y-47038
X49217Y-50379
X49217Y-50935
X49217Y-51492
X49276Y-36158
X49496Y-45646
X49496Y-46203
X49496Y-46760
X49496Y-47316
X49496Y-50100
X49496Y-50657
X49496Y-51214
X49774Y-45924
X49774Y-46481
X49774Y-47038
X49774Y-47595
X49774Y-50379
X49774Y-50935
X49926Y-37858
X50053Y-46203
X50053Y-46760
X50053Y-47316
X50053Y-47873
X50053Y-50100
X50053Y-50657
X50053Y-45646
X50053Y-51214
X50176Y-35108
X50176Y-36158
X50331Y-46481
X50331Y-47038
X50331Y-47595
X50331Y-49822
X50331Y-50379
X50331Y-45924
X50331Y-48152
X50331Y-50935
X50609Y-46760
X50609Y-47316
X50609Y-49544
X50609Y-50100
X50609Y-46203
X50609Y-47873
X50609Y-48430
X50609Y-50657
X50888Y-47038
X50888Y-48708
X50888Y-49265
X50888Y-49822
X50888Y-45924
X50888Y-46481
X50888Y-47595
X50888Y-48152
X50888Y-50379
X50888Y-50935
X51166Y-48430
X51166Y-48987
X51166Y-49544
X51166Y-46203
X51166Y-46760
X51166Y-47316
X51166Y-47873
X51166Y-50100
X51166Y-50657
X51376Y-36358
X51384Y-41291
X51444Y-48152
X51444Y-48708
X51444Y-49265
X51444Y-46481
X51444Y-47038
X51444Y-47595
X51444Y-49822
X51444Y-50379
X51723Y-47873
X51723Y-48430
X51723Y-48987
X51723Y-46760
X51723Y-47316
X51723Y-49544
X51723Y-50100
X51726Y-37808
X52001Y-48152
X52001Y-48708
X52001Y-47595
X52001Y-49265
X52084Y-39491
X52679Y-42967
X52812Y-46585
X53386Y-49587
X53584Y-41491
X53584Y-43841
X53584Y-49841
X53984Y-45872
X54005Y-52462
X54367Y-49780
X54490Y-42985
X54671Y-49864
X54984Y-39491
X55067Y-43563
X55067Y-49025
X55184Y-41691
X55234Y-40341
X55234Y-41091
X55634Y-46906
X55709Y-19094
X55709Y-37598
X55709Y-57677
X56102Y-19094
X56102Y-37598
X56102Y-57677
X56496Y-19094
X56496Y-37598
X56496Y-57677
X56890Y-19094
X56890Y-37598
X56890Y-39173
X56890Y-39567
X56890Y-57677
X57283Y-19094
X57283Y-37598
X57283Y-39173
X57283Y-39567
X57283Y-39961
X57283Y-57677
X57934Y-41591
X57934Y-42441
X57934Y-43341
X57960Y-44491
X57960Y-45041
X57960Y-45441
X57960Y-46491
X57960Y-47391
X57960Y-48341
X58465Y-20276
X58465Y-20669
X58465Y-21063
X58465Y-21457
X58465Y-21850
X58465Y-34843
X58465Y-35236
X58465Y-35630
X58465Y-36024
X58465Y-36417
X58465Y-40354
X58465Y-40748
X58465Y-41142
X58465Y-41535
X58465Y-41929
X58465Y-54921
X58465Y-55315
X58465Y-55709
X58465Y-56102
X58465Y-56496
T2
X40453Y-43488
X40453Y-43988
X40453Y-44488
X40453Y-44988
X40453Y-45488
T3
X48939Y-48708
X49217Y-48430
X49496Y-48152
T4
X41929Y-47441
X41929Y-48425
X41929Y-49409
X42913Y-47441
X42913Y-49409
X47246Y-35750
X51183Y-35750
T5
X42421Y-46122
X42421Y-50728
T0
M30
