G04 #@! TF.FileFunction,Legend,Top*
%FSLAX46Y46*%
G04 Gerber Fmt 4.6, Leading zero omitted, Abs format (unit mm)*
G04 Created by KiCad (PCBNEW 4.0.7-e2-6376~58~ubuntu17.04.1) date Sat May  5 16:48:04 2018*
%MOMM*%
%LPD*%
G01*
G04 APERTURE LIST*
%ADD10C,0.100000*%
%ADD11C,0.300000*%
%ADD12C,0.150000*%
%ADD13C,0.120000*%
%ADD14C,0.200000*%
G04 APERTURE END LIST*
D10*
D11*
X121071429Y-50403571D02*
X120357143Y-50403571D01*
X120357143Y-48903571D01*
X122428572Y-50260714D02*
X122357143Y-50332143D01*
X122142857Y-50403571D01*
X122000000Y-50403571D01*
X121785715Y-50332143D01*
X121642857Y-50189286D01*
X121571429Y-50046429D01*
X121500000Y-49760714D01*
X121500000Y-49546429D01*
X121571429Y-49260714D01*
X121642857Y-49117857D01*
X121785715Y-48975000D01*
X122000000Y-48903571D01*
X122142857Y-48903571D01*
X122357143Y-48975000D01*
X122428572Y-49046429D01*
X123071429Y-50403571D02*
X123071429Y-48903571D01*
X123428572Y-48903571D01*
X123642857Y-48975000D01*
X123785715Y-49117857D01*
X123857143Y-49260714D01*
X123928572Y-49546429D01*
X123928572Y-49760714D01*
X123857143Y-50046429D01*
X123785715Y-50189286D01*
X123642857Y-50332143D01*
X123428572Y-50403571D01*
X123071429Y-50403571D01*
X125214286Y-48903571D02*
X124928572Y-48903571D01*
X124785715Y-48975000D01*
X124714286Y-49046429D01*
X124571429Y-49260714D01*
X124500000Y-49546429D01*
X124500000Y-50117857D01*
X124571429Y-50260714D01*
X124642857Y-50332143D01*
X124785715Y-50403571D01*
X125071429Y-50403571D01*
X125214286Y-50332143D01*
X125285715Y-50260714D01*
X125357143Y-50117857D01*
X125357143Y-49760714D01*
X125285715Y-49617857D01*
X125214286Y-49546429D01*
X125071429Y-49475000D01*
X124785715Y-49475000D01*
X124642857Y-49546429D01*
X124571429Y-49617857D01*
X124500000Y-49760714D01*
X126642857Y-49403571D02*
X126642857Y-50403571D01*
X126285714Y-48832143D02*
X125928571Y-49903571D01*
X126857143Y-49903571D01*
X127285714Y-50403571D02*
X128071428Y-49403571D01*
X127285714Y-49403571D02*
X128071428Y-50403571D01*
X128500000Y-48903571D02*
X129428571Y-48903571D01*
X128928571Y-49475000D01*
X129142857Y-49475000D01*
X129285714Y-49546429D01*
X129357143Y-49617857D01*
X129428571Y-49760714D01*
X129428571Y-50117857D01*
X129357143Y-50260714D01*
X129285714Y-50332143D01*
X129142857Y-50403571D01*
X128714285Y-50403571D01*
X128571428Y-50332143D01*
X128500000Y-50260714D01*
X129999999Y-49046429D02*
X130071428Y-48975000D01*
X130214285Y-48903571D01*
X130571428Y-48903571D01*
X130714285Y-48975000D01*
X130785714Y-49046429D01*
X130857142Y-49189286D01*
X130857142Y-49332143D01*
X130785714Y-49546429D01*
X129928571Y-50403571D01*
X130857142Y-50403571D01*
X132428570Y-48903571D02*
X132928570Y-50403571D01*
X133428570Y-48903571D01*
X134714284Y-50403571D02*
X133857141Y-50403571D01*
X134285713Y-50403571D02*
X134285713Y-48903571D01*
X134142856Y-49117857D01*
X133999998Y-49260714D01*
X133857141Y-49332143D01*
X120285714Y-51596429D02*
X120357143Y-51525000D01*
X120500000Y-51453571D01*
X120857143Y-51453571D01*
X121000000Y-51525000D01*
X121071429Y-51596429D01*
X121142857Y-51739286D01*
X121142857Y-51882143D01*
X121071429Y-52096429D01*
X120214286Y-52953571D01*
X121142857Y-52953571D01*
X122071428Y-51453571D02*
X122214285Y-51453571D01*
X122357142Y-51525000D01*
X122428571Y-51596429D01*
X122500000Y-51739286D01*
X122571428Y-52025000D01*
X122571428Y-52382143D01*
X122500000Y-52667857D01*
X122428571Y-52810714D01*
X122357142Y-52882143D01*
X122214285Y-52953571D01*
X122071428Y-52953571D01*
X121928571Y-52882143D01*
X121857142Y-52810714D01*
X121785714Y-52667857D01*
X121714285Y-52382143D01*
X121714285Y-52025000D01*
X121785714Y-51739286D01*
X121857142Y-51596429D01*
X121928571Y-51525000D01*
X122071428Y-51453571D01*
X123999999Y-52953571D02*
X123142856Y-52953571D01*
X123571428Y-52953571D02*
X123571428Y-51453571D01*
X123428571Y-51667857D01*
X123285713Y-51810714D01*
X123142856Y-51882143D01*
X124499999Y-51453571D02*
X125499999Y-51453571D01*
X124857142Y-52953571D01*
X127214284Y-52953571D02*
X127214284Y-51953571D01*
X127214284Y-52096429D02*
X127285712Y-52025000D01*
X127428570Y-51953571D01*
X127642855Y-51953571D01*
X127785712Y-52025000D01*
X127857141Y-52167857D01*
X127857141Y-52953571D01*
X127857141Y-52167857D02*
X127928570Y-52025000D01*
X128071427Y-51953571D01*
X128285712Y-51953571D01*
X128428570Y-52025000D01*
X128499998Y-52167857D01*
X128499998Y-52953571D01*
X129214284Y-52953571D02*
X129214284Y-51953571D01*
X129214284Y-51453571D02*
X129142855Y-51525000D01*
X129214284Y-51596429D01*
X129285712Y-51525000D01*
X129214284Y-51453571D01*
X129214284Y-51596429D01*
X130571427Y-52882143D02*
X130428570Y-52953571D01*
X130142856Y-52953571D01*
X129999998Y-52882143D01*
X129928570Y-52810714D01*
X129857141Y-52667857D01*
X129857141Y-52239286D01*
X129928570Y-52096429D01*
X129999998Y-52025000D01*
X130142856Y-51953571D01*
X130428570Y-51953571D01*
X130571427Y-52025000D01*
X131214284Y-52953571D02*
X131214284Y-51953571D01*
X131214284Y-52239286D02*
X131285712Y-52096429D01*
X131357141Y-52025000D01*
X131499998Y-51953571D01*
X131642855Y-51953571D01*
X132357141Y-52953571D02*
X132214283Y-52882143D01*
X132142855Y-52810714D01*
X132071426Y-52667857D01*
X132071426Y-52239286D01*
X132142855Y-52096429D01*
X132214283Y-52025000D01*
X132357141Y-51953571D01*
X132571426Y-51953571D01*
X132714283Y-52025000D01*
X132785712Y-52096429D01*
X132857141Y-52239286D01*
X132857141Y-52667857D01*
X132785712Y-52810714D01*
X132714283Y-52882143D01*
X132571426Y-52953571D01*
X132357141Y-52953571D01*
X134071426Y-52882143D02*
X133928569Y-52953571D01*
X133642855Y-52953571D01*
X133499998Y-52882143D01*
X133428569Y-52739286D01*
X133428569Y-52167857D01*
X133499998Y-52025000D01*
X133642855Y-51953571D01*
X133928569Y-51953571D01*
X134071426Y-52025000D01*
X134142855Y-52167857D01*
X134142855Y-52310714D01*
X133428569Y-52453571D01*
X134785712Y-51953571D02*
X134785712Y-52953571D01*
X134785712Y-52096429D02*
X134857140Y-52025000D01*
X134999998Y-51953571D01*
X135214283Y-51953571D01*
X135357140Y-52025000D01*
X135428569Y-52167857D01*
X135428569Y-52953571D01*
X136785712Y-51953571D02*
X136785712Y-53167857D01*
X136714283Y-53310714D01*
X136642855Y-53382143D01*
X136499998Y-53453571D01*
X136285712Y-53453571D01*
X136142855Y-53382143D01*
X136785712Y-52882143D02*
X136642855Y-52953571D01*
X136357141Y-52953571D01*
X136214283Y-52882143D01*
X136142855Y-52810714D01*
X136071426Y-52667857D01*
X136071426Y-52239286D01*
X136142855Y-52096429D01*
X136214283Y-52025000D01*
X136357141Y-51953571D01*
X136642855Y-51953571D01*
X136785712Y-52025000D01*
X137499998Y-52953571D02*
X137499998Y-51953571D01*
X137499998Y-51453571D02*
X137428569Y-51525000D01*
X137499998Y-51596429D01*
X137571426Y-51525000D01*
X137499998Y-51453571D01*
X137499998Y-51596429D01*
X138214284Y-51953571D02*
X138214284Y-52953571D01*
X138214284Y-52096429D02*
X138285712Y-52025000D01*
X138428570Y-51953571D01*
X138642855Y-51953571D01*
X138785712Y-52025000D01*
X138857141Y-52167857D01*
X138857141Y-52953571D01*
X140142855Y-52882143D02*
X139999998Y-52953571D01*
X139714284Y-52953571D01*
X139571427Y-52882143D01*
X139499998Y-52739286D01*
X139499998Y-52167857D01*
X139571427Y-52025000D01*
X139714284Y-51953571D01*
X139999998Y-51953571D01*
X140142855Y-52025000D01*
X140214284Y-52167857D01*
X140214284Y-52310714D01*
X139499998Y-52453571D01*
X141428569Y-52882143D02*
X141285712Y-52953571D01*
X140999998Y-52953571D01*
X140857141Y-52882143D01*
X140785712Y-52739286D01*
X140785712Y-52167857D01*
X140857141Y-52025000D01*
X140999998Y-51953571D01*
X141285712Y-51953571D01*
X141428569Y-52025000D01*
X141499998Y-52167857D01*
X141499998Y-52310714D01*
X140785712Y-52453571D01*
X142142855Y-52953571D02*
X142142855Y-51953571D01*
X142142855Y-52239286D02*
X142214283Y-52096429D01*
X142285712Y-52025000D01*
X142428569Y-51953571D01*
X142571426Y-51953571D01*
X143071426Y-52810714D02*
X143142854Y-52882143D01*
X143071426Y-52953571D01*
X142999997Y-52882143D01*
X143071426Y-52810714D01*
X143071426Y-52953571D01*
X144357140Y-52882143D02*
X144214283Y-52953571D01*
X143928569Y-52953571D01*
X143785712Y-52882143D01*
X143714283Y-52739286D01*
X143714283Y-52167857D01*
X143785712Y-52025000D01*
X143928569Y-51953571D01*
X144214283Y-51953571D01*
X144357140Y-52025000D01*
X144428569Y-52167857D01*
X144428569Y-52310714D01*
X143714283Y-52453571D01*
X145714283Y-51953571D02*
X145714283Y-52953571D01*
X145071426Y-51953571D02*
X145071426Y-52739286D01*
X145142854Y-52882143D01*
X145285712Y-52953571D01*
X145499997Y-52953571D01*
X145642854Y-52882143D01*
X145714283Y-52810714D01*
D12*
X109550000Y-129000000D02*
X109550000Y-117000000D01*
X102750000Y-129000000D02*
X102750000Y-117000000D01*
X109550000Y-129000000D02*
X102750000Y-129000000D01*
X109550000Y-117000000D02*
X102750000Y-117000000D01*
X125012132Y-125451649D02*
X127451650Y-123012131D01*
X127451650Y-123012131D02*
X125012132Y-120572613D01*
X125012132Y-125451649D02*
X122572614Y-123012131D01*
X122572614Y-123012131D02*
X125012132Y-120572613D01*
D13*
X124690000Y-89228000D02*
X122690000Y-89228000D01*
X122690000Y-87088000D02*
X124690000Y-87088000D01*
X124690000Y-91768000D02*
X122690000Y-91768000D01*
X122690000Y-89628000D02*
X124690000Y-89628000D01*
X130441000Y-94947000D02*
X130441000Y-92947000D01*
X132581000Y-92947000D02*
X132581000Y-94947000D01*
X128517000Y-88682000D02*
X128517000Y-90682000D01*
X126377000Y-90682000D02*
X126377000Y-88682000D01*
X118617000Y-51410000D02*
X118617000Y-56610000D01*
X105797000Y-51410000D02*
X105797000Y-56610000D01*
X118047000Y-49970000D02*
X118047000Y-51410000D01*
X118617000Y-51410000D02*
X118047000Y-51410000D01*
X118617000Y-56610000D02*
X118047000Y-56610000D01*
X106367000Y-51410000D02*
X105797000Y-51410000D01*
X106367000Y-56610000D02*
X105797000Y-56610000D01*
X116527000Y-51410000D02*
X115507000Y-51410000D01*
X116527000Y-56610000D02*
X115507000Y-56610000D01*
X113987000Y-51410000D02*
X112967000Y-51410000D01*
X113987000Y-56610000D02*
X112967000Y-56610000D01*
X111447000Y-51410000D02*
X110427000Y-51410000D01*
X111447000Y-56610000D02*
X110427000Y-56610000D01*
X108907000Y-51410000D02*
X107887000Y-51410000D01*
X108907000Y-56610000D02*
X107887000Y-56610000D01*
X135240000Y-91870000D02*
X135240000Y-92800000D01*
X135240000Y-95030000D02*
X135240000Y-94100000D01*
X135240000Y-95030000D02*
X137400000Y-95030000D01*
X135240000Y-91870000D02*
X136700000Y-91870000D01*
X115963000Y-92788000D02*
X115963000Y-90788000D01*
X118103000Y-90788000D02*
X118103000Y-92788000D01*
X113042000Y-92767000D02*
X113042000Y-90767000D01*
X115182000Y-90767000D02*
X115182000Y-92767000D01*
X110121000Y-92788000D02*
X110121000Y-90788000D01*
X112261000Y-90788000D02*
X112261000Y-92788000D01*
X128648000Y-95607000D02*
X126648000Y-95607000D01*
X126648000Y-92647000D02*
X128648000Y-92647000D01*
X140254000Y-92136000D02*
X140254000Y-94136000D01*
X138114000Y-94136000D02*
X138114000Y-92136000D01*
X111597000Y-138542000D02*
X111597000Y-136542000D01*
X109557000Y-136542000D02*
X109557000Y-138542000D01*
X115430000Y-136094000D02*
X117430000Y-136094000D01*
X117430000Y-134054000D02*
X115430000Y-134054000D01*
X122105000Y-138447000D02*
X122105000Y-134147000D01*
X122105000Y-134147000D02*
X120105000Y-134147000D01*
X120105000Y-134147000D02*
X120105000Y-138447000D01*
D12*
X114110000Y-133582000D02*
X114110000Y-128482000D01*
X119210000Y-133582000D02*
X119210000Y-128482000D01*
D13*
X109507000Y-143016000D02*
X109507000Y-141016000D01*
X111647000Y-141016000D02*
X111647000Y-143016000D01*
X115332000Y-141751000D02*
X117332000Y-141751000D01*
X117332000Y-143891000D02*
X115332000Y-143891000D01*
X115332000Y-144291000D02*
X117332000Y-144291000D01*
X117332000Y-146431000D02*
X115332000Y-146431000D01*
D12*
X117803000Y-136344000D02*
X117803000Y-141424000D01*
X117803000Y-141424000D02*
X113231000Y-141424000D01*
X113231000Y-141424000D02*
X113231000Y-136344000D01*
X113231000Y-136344000D02*
X117803000Y-136344000D01*
X116279000Y-136344000D02*
X116279000Y-136852000D01*
X116279000Y-136852000D02*
X115009000Y-136852000D01*
X115009000Y-136852000D02*
X115009000Y-136344000D01*
D13*
X106982000Y-106379000D02*
X106982000Y-105379000D01*
X105282000Y-105379000D02*
X105282000Y-106379000D01*
X142961000Y-116056000D02*
X140331000Y-116056000D01*
X134581000Y-116056000D02*
X137211000Y-116056000D01*
X135341000Y-124436000D02*
X137211000Y-124436000D01*
X142201000Y-124436000D02*
X140331000Y-124436000D01*
X142961000Y-116056000D02*
X142961000Y-123676000D01*
X142961000Y-123676000D02*
X142201000Y-124436000D01*
X135341000Y-124436000D02*
X134581000Y-123676000D01*
X134581000Y-123676000D02*
X134581000Y-116056000D01*
X135128000Y-110979000D02*
X137128000Y-110979000D01*
X137128000Y-108939000D02*
X135128000Y-108939000D01*
X106601000Y-114126000D02*
X106601000Y-113126000D01*
X104901000Y-113126000D02*
X104901000Y-114126000D01*
X123465000Y-137259000D02*
X123465000Y-140149000D01*
X123465000Y-146159000D02*
X123465000Y-143269000D01*
X133885000Y-146919000D02*
X133885000Y-143269000D01*
X133885000Y-136499000D02*
X133885000Y-140149000D01*
X133885000Y-146919000D02*
X124225000Y-146919000D01*
X124225000Y-146919000D02*
X123465000Y-146159000D01*
X123465000Y-137259000D02*
X124225000Y-136499000D01*
X124225000Y-136499000D02*
X133885000Y-136499000D01*
X133858000Y-113773000D02*
X135858000Y-113773000D01*
X135858000Y-111733000D02*
X133858000Y-111733000D01*
X106283000Y-111825000D02*
X107283000Y-111825000D01*
X107283000Y-110125000D02*
X106283000Y-110125000D01*
X115522000Y-113857000D02*
X116522000Y-113857000D01*
X116522000Y-112157000D02*
X115522000Y-112157000D01*
X111728000Y-98822000D02*
X110728000Y-98822000D01*
X110728000Y-100522000D02*
X111728000Y-100522000D01*
X106283000Y-109793000D02*
X107283000Y-109793000D01*
X107283000Y-108093000D02*
X106283000Y-108093000D01*
X121714000Y-103490000D02*
X121714000Y-102490000D01*
X120014000Y-102490000D02*
X120014000Y-103490000D01*
X111370000Y-116590000D02*
X111370000Y-115590000D01*
X109670000Y-115590000D02*
X109670000Y-116590000D01*
X113360000Y-116550000D02*
X113360000Y-115550000D01*
X111660000Y-115550000D02*
X111660000Y-116550000D01*
X127550000Y-134500000D02*
X127550000Y-136100000D01*
X127550000Y-136100000D02*
X130150000Y-136100000D01*
X127550000Y-134500000D02*
X130150000Y-134500000D01*
X139331000Y-129383000D02*
X144531000Y-129383000D01*
X139331000Y-142203000D02*
X144531000Y-142203000D01*
X137891000Y-129953000D02*
X139331000Y-129953000D01*
X139331000Y-129383000D02*
X139331000Y-129953000D01*
X144531000Y-129383000D02*
X144531000Y-129953000D01*
X139331000Y-141633000D02*
X139331000Y-142203000D01*
X144531000Y-141633000D02*
X144531000Y-142203000D01*
X139331000Y-131473000D02*
X139331000Y-132493000D01*
X144531000Y-131473000D02*
X144531000Y-132493000D01*
X139331000Y-134013000D02*
X139331000Y-135033000D01*
X144531000Y-134013000D02*
X144531000Y-135033000D01*
X139331000Y-136553000D02*
X139331000Y-137573000D01*
X144531000Y-136553000D02*
X144531000Y-137573000D01*
X139331000Y-139093000D02*
X139331000Y-140113000D01*
X144531000Y-139093000D02*
X144531000Y-140113000D01*
X103860000Y-109765000D02*
X103057530Y-109765000D01*
X102442470Y-109765000D02*
X101640000Y-109765000D01*
X103860000Y-114780000D02*
X103860000Y-109765000D01*
X101640000Y-114780000D02*
X101640000Y-109765000D01*
X103860000Y-114780000D02*
X103313471Y-114780000D01*
X102186529Y-114780000D02*
X101640000Y-114780000D01*
X103860000Y-115540000D02*
X103860000Y-116300000D01*
X103860000Y-116300000D02*
X102750000Y-116300000D01*
X127613000Y-100185000D02*
X127613000Y-101115000D01*
X127613000Y-103345000D02*
X127613000Y-102415000D01*
X127613000Y-103345000D02*
X129773000Y-103345000D01*
X127613000Y-100185000D02*
X129073000Y-100185000D01*
X105252000Y-103005000D02*
X105252000Y-101805000D01*
X107012000Y-101805000D02*
X107012000Y-103005000D01*
X141534000Y-99427000D02*
X142734000Y-99427000D01*
X142734000Y-101187000D02*
X141534000Y-101187000D01*
X142734000Y-105251000D02*
X141534000Y-105251000D01*
X141534000Y-103491000D02*
X142734000Y-103491000D01*
X142739000Y-103219000D02*
X141539000Y-103219000D01*
X141539000Y-101459000D02*
X142739000Y-101459000D01*
X108630000Y-113100000D02*
X108630000Y-114300000D01*
X106870000Y-114300000D02*
X106870000Y-113100000D01*
X127823000Y-104126000D02*
X129023000Y-104126000D01*
X129023000Y-105886000D02*
X127823000Y-105886000D01*
X124008000Y-102094000D02*
X125208000Y-102094000D01*
X125208000Y-103854000D02*
X124008000Y-103854000D01*
X125208000Y-105886000D02*
X124008000Y-105886000D01*
X124008000Y-104126000D02*
X125208000Y-104126000D01*
X125000000Y-134420000D02*
X126200000Y-134420000D01*
X126200000Y-136180000D02*
X125000000Y-136180000D01*
X139514000Y-102055000D02*
X138254000Y-102055000D01*
X132694000Y-102055000D02*
X133954000Y-102055000D01*
X139514000Y-105815000D02*
X139514000Y-102055000D01*
X132694000Y-108065000D02*
X132694000Y-102055000D01*
D12*
X110504000Y-110123000D02*
X110954000Y-110123000D01*
X110504000Y-102873000D02*
X111029000Y-102873000D01*
X117754000Y-102873000D02*
X117229000Y-102873000D01*
X117754000Y-110123000D02*
X117229000Y-110123000D01*
X110504000Y-110123000D02*
X110504000Y-109598000D01*
X117754000Y-110123000D02*
X117754000Y-109598000D01*
X117754000Y-102873000D02*
X117754000Y-103398000D01*
X110504000Y-102873000D02*
X110504000Y-103398000D01*
X110954000Y-110123000D02*
X110954000Y-111498000D01*
X149903000Y-111160000D02*
X149303000Y-111160000D01*
X149903000Y-111160000D02*
X149903000Y-104510000D01*
X149903000Y-104510000D02*
X149303000Y-104510000D01*
X149303000Y-111610000D02*
X144303000Y-111610000D01*
X144303000Y-111610000D02*
X144303000Y-104110000D01*
X144303000Y-104110000D02*
X147253000Y-104110000D01*
X147153000Y-104110000D02*
X149303000Y-104110000D01*
X149303000Y-104110000D02*
X149303000Y-111610000D01*
X149303000Y-111610000D02*
X147153000Y-111610000D01*
D14*
X104076000Y-108714000D02*
X104076000Y-102314000D01*
X101076000Y-108714000D02*
X101076000Y-102314000D01*
X101076000Y-102314000D02*
X104076000Y-102314000D01*
X101076000Y-108714000D02*
X104076000Y-108714000D01*
D13*
X114998000Y-122825000D02*
X113998000Y-122825000D01*
X113998000Y-124525000D02*
X114998000Y-124525000D01*
X113507000Y-116467000D02*
X113507000Y-115267000D01*
X115267000Y-115267000D02*
X115267000Y-116467000D01*
D12*
X113264000Y-121846000D02*
X113264000Y-118646000D01*
X113264000Y-118646000D02*
X115764000Y-118646000D01*
X115764000Y-118646000D02*
X115764000Y-121846000D01*
X115764000Y-121846000D02*
X113264000Y-121846000D01*
D13*
X105246000Y-131137000D02*
X107246000Y-131137000D01*
X107246000Y-133277000D02*
X105246000Y-133277000D01*
X105246000Y-133677000D02*
X107246000Y-133677000D01*
X107246000Y-135817000D02*
X105246000Y-135817000D01*
X105246000Y-136217000D02*
X107246000Y-136217000D01*
X107246000Y-138357000D02*
X105246000Y-138357000D01*
X112125000Y-112255000D02*
X110775000Y-112255000D01*
X112125000Y-114005000D02*
X110775000Y-114005000D01*
D12*
X149969000Y-123740000D02*
X149369000Y-123740000D01*
X149969000Y-123740000D02*
X149969000Y-117090000D01*
X149969000Y-117090000D02*
X149369000Y-117090000D01*
X149369000Y-124190000D02*
X144369000Y-124190000D01*
X144369000Y-124190000D02*
X144369000Y-116690000D01*
X144369000Y-116690000D02*
X147319000Y-116690000D01*
X147219000Y-116690000D02*
X149369000Y-116690000D01*
X149369000Y-116690000D02*
X149369000Y-124190000D01*
X149369000Y-124190000D02*
X147219000Y-124190000D01*
X142752429Y-125406952D02*
X142752429Y-124645047D01*
X143133381Y-125025999D02*
X142371476Y-125025999D01*
X122514048Y-146750429D02*
X123275953Y-146750429D01*
X122895001Y-147131381D02*
X122895001Y-146369476D01*
M02*
