G04 #@! TF.FileFunction,Profile,NP*
%FSLAX46Y46*%
G04 Gerber Fmt 4.6, Leading zero omitted, Abs format (unit mm)*
G04 Created by KiCad (PCBNEW 4.0.7-e2-6376~58~ubuntu17.04.1) date Sat May  5 16:48:04 2018*
%MOMM*%
%LPD*%
G01*
G04 APERTURE LIST*
%ADD10C,0.100000*%
%ADD11C,0.200000*%
%ADD12C,0.150000*%
G04 APERTURE END LIST*
D10*
D11*
X157000000Y-78000000D02*
X172000000Y-78000000D01*
X157000000Y-90000000D02*
X157000000Y-78000000D01*
X172000000Y-90000000D02*
X157000000Y-90000000D01*
X172000000Y-78000000D02*
X172000000Y-90000000D01*
X151500000Y-72500000D02*
X155500000Y-72500000D01*
D12*
X155500000Y-75500000D02*
G75*
G03X155500000Y-75500000I-1000000J0D01*
G01*
D11*
X157500000Y-72500000D02*
X171500000Y-72500000D01*
X177500000Y-72500000D02*
X177500000Y-95500000D01*
D12*
X175500000Y-92500000D02*
G75*
G03X175500000Y-92500000I-1000000J0D01*
G01*
D11*
X173500000Y-72500000D02*
X177500000Y-72500000D01*
D12*
X175500000Y-75500000D02*
G75*
G03X175500000Y-75500000I-1000000J0D01*
G01*
D11*
X151500000Y-77000000D02*
X151500000Y-72500000D01*
X151500000Y-79000000D02*
X151500000Y-88000000D01*
X177500000Y-95500000D02*
X151500000Y-95500000D01*
D12*
X155500000Y-92500000D02*
G75*
G03X155500000Y-92500000I-1000000J0D01*
G01*
D11*
X151500000Y-90000000D02*
X151500000Y-95500000D01*
X151500000Y-88000000D02*
X149500000Y-88000000D01*
X151500000Y-77000000D02*
X149500000Y-77000000D01*
X157500000Y-70500000D02*
X157500000Y-72500000D01*
X173500000Y-72500000D02*
X173500000Y-70500000D01*
X131300000Y-75500000D02*
X118700000Y-75500000D01*
X118700000Y-75500000D02*
X118700000Y-68500000D01*
X118700000Y-68500000D02*
X131300000Y-68500000D01*
X131300000Y-68500000D02*
X131300000Y-75500000D01*
X100500000Y-140500000D02*
X100500000Y-147500000D01*
X100500000Y-128500000D02*
X100500000Y-140500000D01*
X100500000Y-115500000D02*
X100500000Y-128500000D01*
X100500000Y-103500000D02*
X100500000Y-115500000D01*
X105500000Y-96500000D02*
X100500000Y-96500000D01*
X117500000Y-96500000D02*
X107500000Y-96500000D01*
X130500000Y-96500000D02*
X119500000Y-96500000D01*
X142500000Y-96500000D02*
X132500000Y-96500000D01*
X119500000Y-96500000D02*
X119500000Y-98500000D01*
X117500000Y-98500000D02*
X117500000Y-96500000D01*
X130500000Y-96500000D02*
X130500000Y-98500000D01*
X132500000Y-98500000D02*
X132500000Y-96500000D01*
X142500000Y-96500000D02*
X142500000Y-98500000D01*
X144500000Y-96500000D02*
X144500000Y-98500000D01*
X107500000Y-96500000D02*
X107500000Y-98500000D01*
X105500000Y-96500000D02*
X105500000Y-98500000D01*
X132500000Y-98500000D02*
X142500000Y-98500000D01*
X116000000Y-98500000D02*
X117500000Y-98500000D01*
X105000000Y-98500000D02*
X105500000Y-98500000D01*
D12*
X100500000Y-147500000D02*
X149500000Y-147500000D01*
X103500000Y-100500000D02*
G75*
G03X103500000Y-100500000I-1000000J0D01*
G01*
X103500000Y-145500000D02*
G75*
G03X103500000Y-145500000I-1000000J0D01*
G01*
X148500000Y-145500000D02*
G75*
G03X148500000Y-145500000I-1000000J0D01*
G01*
X100500000Y-98500000D02*
X100500000Y-103500000D01*
X149500000Y-147500000D02*
X149500000Y-98500000D01*
D11*
X100500000Y-98500000D02*
X105000000Y-98500000D01*
X107500000Y-98500000D02*
X116000000Y-98500000D01*
D12*
X130500000Y-98500000D02*
X119500000Y-98500000D01*
D11*
X144500000Y-98500000D02*
X149500000Y-98500000D01*
D12*
X148500000Y-100500000D02*
G75*
G03X148500000Y-100500000I-1000000J0D01*
G01*
D11*
X149500000Y-90000000D02*
X149500000Y-96500000D01*
X149500000Y-79000000D02*
X149500000Y-88000000D01*
X177500000Y-70500000D02*
X173500000Y-70500000D01*
X157500000Y-70500000D02*
X171500000Y-70500000D01*
X171500000Y-70500000D02*
X171500000Y-72500000D01*
X155500000Y-72500000D02*
X155500000Y-70500000D01*
X149500000Y-90000000D02*
X151500000Y-90000000D01*
X149500000Y-79000000D02*
X151500000Y-79000000D01*
X151500000Y-65000000D02*
X151500000Y-70500000D01*
X151500000Y-54000000D02*
X151500000Y-63000000D01*
X149500000Y-54000000D02*
X149500000Y-63000000D01*
X149500000Y-47500000D02*
X149500000Y-52000000D01*
X151500000Y-63000000D02*
X149500000Y-63000000D01*
X151500000Y-65000000D02*
X149500000Y-65000000D01*
X149500000Y-54000000D02*
X151500000Y-54000000D01*
X149500000Y-52000000D02*
X151500000Y-52000000D01*
D12*
X175500000Y-50500000D02*
G75*
G03X175500000Y-50500000I-1000000J0D01*
G01*
X175500000Y-67500000D02*
G75*
G03X175500000Y-67500000I-1000000J0D01*
G01*
X155500000Y-50500000D02*
G75*
G03X155500000Y-50500000I-1000000J0D01*
G01*
X155500000Y-67500000D02*
G75*
G03X155500000Y-67500000I-1000000J0D01*
G01*
D11*
X170800000Y-54000000D02*
X170800000Y-61000000D01*
X158200000Y-54000000D02*
X170800000Y-54000000D01*
X158200000Y-61000000D02*
X158200000Y-54000000D01*
X170800000Y-61000000D02*
X158200000Y-61000000D01*
X151500000Y-52000000D02*
X151500000Y-47500000D01*
X177500000Y-47500000D02*
X177500000Y-70500000D01*
X155500000Y-70500000D02*
X151500000Y-70500000D01*
X151500000Y-47500000D02*
X177500000Y-47500000D01*
D12*
X103500000Y-94500000D02*
G75*
G03X103500000Y-94500000I-1000000J0D01*
G01*
X148500000Y-94500000D02*
G75*
G03X148500000Y-94500000I-1000000J0D01*
G01*
X148500000Y-49500000D02*
G75*
G03X148500000Y-49500000I-1000000J0D01*
G01*
X103500000Y-49500000D02*
G75*
G03X103500000Y-49500000I-1000000J0D01*
G01*
X136000000Y-65000000D02*
G75*
G03X136000000Y-65000000I-1000000J0D01*
G01*
X136000000Y-82000000D02*
G75*
G03X136000000Y-82000000I-1000000J0D01*
G01*
X116000000Y-82000000D02*
G75*
G03X116000000Y-82000000I-1000000J0D01*
G01*
X116000000Y-65000000D02*
G75*
G03X116000000Y-65000000I-1000000J0D01*
G01*
X100500000Y-47500000D02*
X100500000Y-96500000D01*
X149500000Y-47500000D02*
X100500000Y-47500000D01*
X149500000Y-77000000D02*
X149500000Y-65000000D01*
X144500000Y-96500000D02*
X149500000Y-96500000D01*
M02*
