G04 #@! TF.FileFunction,Soldermask,Top*
%FSLAX46Y46*%
G04 Gerber Fmt 4.6, Leading zero omitted, Abs format (unit mm)*
G04 Created by KiCad (PCBNEW 4.0.7-e2-6376~58~ubuntu17.04.1) date Sat May  5 16:48:04 2018*
%MOMM*%
%LPD*%
G01*
G04 APERTURE LIST*
%ADD10C,0.100000*%
%ADD11C,2.400000*%
%ADD12R,3.400000X3.400000*%
%ADD13C,1.400000*%
%ADD14R,1.300000X2.100000*%
%ADD15R,2.100000X1.300000*%
%ADD16R,1.400000X3.550000*%
%ADD17R,1.300000X1.200000*%
%ADD18R,1.300000X2.900000*%
%ADD19R,2.000000X1.400000*%
%ADD20R,1.400000X2.000000*%
%ADD21R,2.100000X1.700000*%
%ADD22R,4.600000X1.900000*%
%ADD23R,1.543000X0.908000*%
%ADD24R,1.650000X1.400000*%
%ADD25R,2.900000X4.400000*%
%ADD26R,4.400000X2.900000*%
%ADD27R,1.400000X1.650000*%
%ADD28R,1.200000X1.300000*%
%ADD29R,1.100000X1.400000*%
%ADD30R,3.550000X1.400000*%
%ADD31R,1.400000X1.400000*%
%ADD32O,1.400000X1.400000*%
%ADD33R,1.700000X1.100000*%
%ADD34R,1.100000X1.700000*%
%ADD35R,4.200000X2.400000*%
%ADD36R,1.900000X2.400000*%
%ADD37R,0.650000X1.700000*%
%ADD38R,1.700000X0.650000*%
%ADD39R,2.300000X2.700000*%
%ADD40R,2.300000X2.200000*%
%ADD41R,1.800000X0.800000*%
%ADD42R,2.200000X1.200000*%
%ADD43R,2.000000X2.200000*%
%ADD44R,1.400000X2.200000*%
G04 APERTURE END LIST*
D10*
D11*
X106500000Y-123000000D03*
X106500000Y-125500000D03*
X106500000Y-120500000D03*
D12*
X107750000Y-128850000D03*
X107750000Y-117150000D03*
D11*
X109000000Y-125500000D03*
X109000000Y-120500000D03*
D13*
X124305025Y-123719238D03*
X125719239Y-122305025D03*
X125012132Y-123012131D03*
D10*
G36*
X126921320Y-122305024D02*
X124305025Y-124921319D01*
X123102944Y-123719238D01*
X125719239Y-121102943D01*
X126921320Y-122305024D01*
X126921320Y-122305024D01*
G37*
G36*
X128689088Y-124072792D02*
X126072793Y-126689087D01*
X124375736Y-124992030D01*
X126992031Y-122375735D01*
X128689088Y-124072792D01*
X128689088Y-124072792D01*
G37*
G36*
X125648528Y-121032232D02*
X123032233Y-123648527D01*
X121335176Y-121951470D01*
X123951471Y-119335175D01*
X125648528Y-121032232D01*
X125648528Y-121032232D01*
G37*
D14*
X122240000Y-88158000D03*
X125140000Y-88158000D03*
X122240000Y-90698000D03*
X125140000Y-90698000D03*
D15*
X131511000Y-92497000D03*
X131511000Y-95397000D03*
X127447000Y-91132000D03*
X127447000Y-88232000D03*
D16*
X117287000Y-51485000D03*
X117287000Y-56535000D03*
X114747000Y-51485000D03*
X114747000Y-56535000D03*
X112207000Y-51485000D03*
X112207000Y-56535000D03*
X109667000Y-51485000D03*
X109667000Y-56535000D03*
X107127000Y-51485000D03*
X107127000Y-56535000D03*
D17*
X137000000Y-94400000D03*
X137000000Y-92500000D03*
X135000000Y-93450000D03*
D15*
X117033000Y-90338000D03*
X117033000Y-93238000D03*
X114112000Y-90317000D03*
X114112000Y-93217000D03*
X111191000Y-90338000D03*
X111191000Y-93238000D03*
D18*
X126198000Y-94127000D03*
X129098000Y-94127000D03*
D15*
X139184000Y-94586000D03*
X139184000Y-91686000D03*
D19*
X110577000Y-136042000D03*
X110577000Y-139042000D03*
D20*
X117930000Y-135074000D03*
X114930000Y-135074000D03*
D21*
X121105000Y-134947000D03*
X121105000Y-138447000D03*
D22*
X116660000Y-132832000D03*
X116660000Y-129232000D03*
D15*
X110577000Y-140566000D03*
X110577000Y-143466000D03*
D14*
X117782000Y-142821000D03*
X114882000Y-142821000D03*
X117782000Y-145361000D03*
X114882000Y-145361000D03*
D23*
X118692000Y-136979000D03*
X118692000Y-138249000D03*
X118692000Y-139519000D03*
X118692000Y-140789000D03*
X112342000Y-140789000D03*
X112342000Y-139519000D03*
X112342000Y-138249000D03*
X112342000Y-136979000D03*
D24*
X106132000Y-104879000D03*
X106132000Y-106879000D03*
D25*
X138771000Y-123296000D03*
X138771000Y-117196000D03*
D20*
X137628000Y-109959000D03*
X134628000Y-109959000D03*
D24*
X105751000Y-112626000D03*
X105751000Y-114626000D03*
D26*
X124675000Y-141709000D03*
X132675000Y-141709000D03*
D20*
X136358000Y-112753000D03*
X133358000Y-112753000D03*
D27*
X107783000Y-110975000D03*
X105783000Y-110975000D03*
X117022000Y-113007000D03*
X115022000Y-113007000D03*
X110228000Y-99672000D03*
X112228000Y-99672000D03*
X107783000Y-108943000D03*
X105783000Y-108943000D03*
D24*
X120864000Y-101990000D03*
X120864000Y-103990000D03*
X110520000Y-115090000D03*
X110520000Y-117090000D03*
X112510000Y-115050000D03*
X112510000Y-117050000D03*
D28*
X128100000Y-135300000D03*
X130200000Y-135300000D03*
D29*
X141649132Y-110947131D03*
X142665132Y-110947131D03*
D30*
X139406000Y-130713000D03*
X144456000Y-130713000D03*
X139406000Y-133253000D03*
X144456000Y-133253000D03*
X139406000Y-135793000D03*
X144456000Y-135793000D03*
X139406000Y-138333000D03*
X144456000Y-138333000D03*
X139406000Y-140873000D03*
X144456000Y-140873000D03*
D31*
X102750000Y-115540000D03*
D32*
X102750000Y-114270000D03*
X102750000Y-113000000D03*
X102750000Y-111730000D03*
X102750000Y-110460000D03*
D17*
X129373000Y-102715000D03*
X129373000Y-100815000D03*
X127373000Y-101765000D03*
D33*
X106132000Y-101455000D03*
X106132000Y-103355000D03*
D34*
X143084000Y-100307000D03*
X141184000Y-100307000D03*
X141184000Y-104371000D03*
X143084000Y-104371000D03*
X141189000Y-102339000D03*
X143089000Y-102339000D03*
D33*
X107750000Y-114650000D03*
X107750000Y-112750000D03*
D34*
X129373000Y-105006000D03*
X127473000Y-105006000D03*
X125558000Y-102974000D03*
X123658000Y-102974000D03*
X123658000Y-105006000D03*
X125558000Y-105006000D03*
X126550000Y-135300000D03*
X124650000Y-135300000D03*
D35*
X136104000Y-100815000D03*
D36*
X136104000Y-107115000D03*
X138404000Y-107115000D03*
X133804000Y-107115000D03*
D37*
X111379000Y-110848000D03*
X111879000Y-110848000D03*
X112379000Y-110848000D03*
X112879000Y-110848000D03*
X113379000Y-110848000D03*
X113879000Y-110848000D03*
X114379000Y-110848000D03*
X114879000Y-110848000D03*
X115379000Y-110848000D03*
X115879000Y-110848000D03*
X116379000Y-110848000D03*
X116879000Y-110848000D03*
D38*
X118479000Y-109248000D03*
X118479000Y-108748000D03*
X118479000Y-108248000D03*
X118479000Y-107748000D03*
X118479000Y-107248000D03*
X118479000Y-106748000D03*
X118479000Y-106248000D03*
X118479000Y-105748000D03*
X118479000Y-105248000D03*
X118479000Y-104748000D03*
X118479000Y-104248000D03*
X118479000Y-103748000D03*
D37*
X116879000Y-102148000D03*
X116379000Y-102148000D03*
X115879000Y-102148000D03*
X115379000Y-102148000D03*
X114879000Y-102148000D03*
X114379000Y-102148000D03*
X113879000Y-102148000D03*
X113379000Y-102148000D03*
X112879000Y-102148000D03*
X112379000Y-102148000D03*
X111879000Y-102148000D03*
X111379000Y-102148000D03*
D38*
X109779000Y-103748000D03*
X109779000Y-104248000D03*
X109779000Y-104748000D03*
X109779000Y-105248000D03*
X109779000Y-105748000D03*
X109779000Y-106248000D03*
X109779000Y-106748000D03*
X109779000Y-107248000D03*
X109779000Y-107748000D03*
X109779000Y-108248000D03*
X109779000Y-108748000D03*
X109779000Y-109248000D03*
D39*
X147153000Y-111610000D03*
X147153000Y-104110000D03*
D40*
X147153000Y-109010000D03*
X147153000Y-106710000D03*
D41*
X144303000Y-107860000D03*
X144303000Y-107210000D03*
X144303000Y-108510000D03*
X144303000Y-109160000D03*
X144303000Y-106560000D03*
D42*
X103846000Y-106149000D03*
X103846000Y-107419000D03*
X103846000Y-104879000D03*
X103846000Y-103609000D03*
D27*
X113498000Y-123675000D03*
X115498000Y-123675000D03*
D33*
X114387000Y-114917000D03*
X114387000Y-116817000D03*
D43*
X115514000Y-121546000D03*
X115514000Y-118946000D03*
X113514000Y-118946000D03*
X113514000Y-121546000D03*
D14*
X107696000Y-132207000D03*
X104796000Y-132207000D03*
X107696000Y-134747000D03*
X104796000Y-134747000D03*
X107696000Y-137287000D03*
X104796000Y-137287000D03*
D44*
X110200000Y-113130000D03*
X112700000Y-113130000D03*
D39*
X147219000Y-124190000D03*
X147219000Y-116690000D03*
D40*
X147219000Y-121590000D03*
X147219000Y-119290000D03*
D41*
X144369000Y-120440000D03*
X144369000Y-119790000D03*
X144369000Y-121090000D03*
X144369000Y-121740000D03*
X144369000Y-119140000D03*
D13*
X130004000Y-90805000D03*
X120004000Y-90805000D03*
M02*
